<?xml version="1.0" encoding="UTF-8" standalone="no"?>
<svg
   id="Logo_5"
   data-name="Logo 5"
   width="433"
   height="370"
   viewBox="0 0 433 370"
   version="1.1"
   sodipodi:docname="lessonlab_logo_final.svg"
   inkscape:version="1.3 (0e150ed6c4, 2023-07-21)"
   xmlns:inkscape="http://www.inkscape.org/namespaces/inkscape"
   xmlns:sodipodi="http://sodipodi.sourceforge.net/DTD/sodipodi-0.dtd"
   xmlns="http://www.w3.org/2000/svg"
   xmlns:svg="http://www.w3.org/2000/svg">
  <sodipodi:namedview
     id="namedview4"
     pagecolor="#505050"
     bordercolor="#ffffff"
     borderopacity="1"
     inkscape:showpageshadow="0"
     inkscape:pageopacity="0"
     inkscape:pagecheckerboard="1"
     inkscape:deskcolor="#505050"
     inkscape:zoom="1.4142136"
     inkscape:cx="199.05056"
     inkscape:cy="158.03837"
     inkscape:window-width="1366"
     inkscape:window-height="705"
     inkscape:window-x="-8"
     inkscape:window-y="-8"
     inkscape:window-maximized="1"
     inkscape:current-layer="Logo_5" />
  <defs
     id="defs1">
    <style
       id="style1">&#10;      .cls-1 {&#10;        fill: #f1c41b;&#10;        fill-rule: evenodd;&#10;      }&#10;    </style>
  </defs>
  <path
     style="fill:#313338;fill-opacity:1"
     d="m 342.89944,152.82069 c 4.37656,-1.81015 6.7581,-5.21633 7.71011,-9.76613 l 1.79902,-105.885418 c -0.30302,-3.705345 -2.61004,-6.3176 -6.68209,-7.967106 L 232.38796,13.524826 c -5.66223,-0.739401 -11.73352,-0.967481 -18.76125,0 l -94.57727,16.705223 c -4.62108,1.799024 -5.87398,3.598049 -6.42508,5.397073 l -1.54202,101.516358 c 0.59982,4.98477 0.31676,10.13508 6.16808,14.13519 l 104.6004,21.58829 c 3.44141,0.38676 6.66684,0.12559 9.76613,-0.51401 z"
     id="path8"
     sodipodi:nodetypes="ccccccccccccc" />
  <path
     style="fill:#313338;fill-opacity:1"
     d="m 42.377901,169.313 c -10.11843,36.96244 8.30161,54.98299 11.82216,64.76486 l 181.958429,37.52251 180.41642,-45.74662 c 3.98673,-2.57003 3.32163,-5.14007 2.57003,-7.7101 -11.99265,-13.15305 -21.75303,-27.68485 -17.47623,-50.88668 -0.28726,-2.69135 -2.08086,-3.21998 -2.72372,-3.68644 l -46.62094,-7.62171 -127.47371,25.70034 -117.70758,-27.75637 z"
     id="path13"
     sodipodi:nodetypes="ccccccccccc" />
  <path
     style="fill:#ececec;fill-opacity:1"
     d="m 388.45388,177.59038 c -2.87253,17.46771 3.53717,28.23159 9.08644,39.6169 l -156.28683,39.61689 c -8.07381,-1.50531 -15.31159,-28.42532 -5.81532,-45.43222 z"
     id="path14"
     sodipodi:nodetypes="ccccc" />
  <path
     style="fill:#d2d2d2;fill-opacity:1"
     d="m 220.3862,208.97971 c -7.10469,21.7516 -0.28019,35.15403 1.28501,44.20459 L 64.385111,219.77386 c -13.58702,-11.01763 -13.41712,-35.64687 -9.25213,-43.43358 z"
     id="path16"
     sodipodi:nodetypes="ccccc" />
  <path
     style="display:inline;fill:#313338;fill-opacity:1"
     d="m 183.00288,199.50712 c -6.17101,5.6646 -11.17125,37.65299 5.39707,47.93115 l -20.94578,-3.59805 c -4.79296,-18.91868 -5.47739,-30.8719 -0.77101,-46.51762 z"
     id="path18"
     sodipodi:nodetypes="ccccc" />
  <path
     style="display:inline;fill:#313338;fill-opacity:1"
     d="m 99.47676,181.25988 c -6.17101,5.6646 -11.171249,37.65299 5.39707,47.93115 l -20.945779,-3.59805 c -4.79296,-18.91868 -5.47739,-30.8719 -0.77101,-46.51762 z"
     id="path19"
     sodipodi:nodetypes="ccccc" />
  <path
     style="fill:#313338;fill-opacity:1"
     d="m 19.806351,257.23528 c -16.89982,31.94485 10.52732,62.20945 12,64.25 l 181.249999,38.75 183.5,-46.25 c 0.96378,-0.63396 1.98949,-0.89637 2.5,-4.25 -5.30066,-3.21865 -24.67422,-24.0924 -18,-58 -0.4572,-3.66829 -2.99643,-4.36225 -5.75,-4.75 l -136.75,33.5 -168.999999,-35.25 z"
     id="path20"
     sodipodi:nodetypes="cccccccccc" />
  <path
     style="fill:#ececec;fill-opacity:1"
     d="m 367.94778,267.39294 c -2.87253,17.46771 3.53718,28.23159 9.08644,39.6169 l -156.28683,39.61689 c -8.07381,-1.50531 -15.31159,-28.42532 -5.81532,-45.43222 z"
     id="path1"
     sodipodi:nodetypes="ccccc" />
  <path
     style="fill:#d2d2d2;fill-opacity:1"
     d="m 196.46589,296.36806 c -7.10469,21.7516 -0.28019,35.15403 1.28501,44.20459 L 40.464801,307.16221 c -16.26324,-13.43618 -13.41806,-35.62524 -9.25213,-43.43358 z"
     id="path2"
     sodipodi:nodetypes="ccccc" />
  <path
     style="display:inline;fill:#313338;fill-opacity:1"
     d="m 161.78968,287.18836 c -6.17101,5.6646 -11.17125,37.65299 5.39707,47.93115 l -20.94578,-3.59805 c -4.79296,-18.91868 -5.47739,-30.8719 -0.77101,-46.51762 z"
     id="path5"
     sodipodi:nodetypes="ccccc" />
  <path
     style="display:inline;fill:#313338;fill-opacity:1"
     d="m 75.289681,270.18836 c -6.17101,5.6646 -11.17125,37.65299 5.39707,47.93115 l -20.94578,-3.59805 c -4.79296,-18.91868 -5.47739,-30.8719 -0.77101,-46.51762 z"
     id="path6"
     sodipodi:nodetypes="ccccc" />
  <path
     id="path9"
     style="display:inline;fill:#d2d2d2;stroke-width:0.886439"
     d="m 224.45312,21.979109 c -2.75157,-0.02527 -5.65434,0.139069 -8.76918,0.567875 L 131.84792,37.35502 c -4.09631,1.594725 -5.20755,3.18893 -5.69606,4.783655 l -1.36775,89.987425 c 0.5317,4.4187 0.28242,8.98548 5.46926,12.53134 l 92.72119,19.13636 c 3.0506,0.34284 5.90931,0.11162 8.65664,-0.45535 l 98.64579,-17.31499 c 3.87956,-1.60459 5.98965,-4.62352 6.83354,-8.65663 l 1.59629,-93.862138 c -0.26861,-3.284563 -2.31497,-5.599895 -5.9246,-7.062082 L 232.31507,22.546984 c -2.50962,-0.327717 -5.11039,-0.542603 -7.86195,-0.567875 z" />
  <path
     style="display:inline;fill:#313338;fill-opacity:1"
     d="m 217.05272,140.44042 c 0.48238,5.77738 3.88707,8.95715 10.53714,9.25213 l 91.75023,-15.42021 c 5.1722,-3.36399 6.24607,-8.48441 6.68209,-13.87819 l 0.77101,-65.792869 c -0.28245,-3.513713 -2.3798,-6.249613 -7.4531,-7.710103 l -90.97922,13.107176 c -9.37313,2.80183 -12.07534,6.629958 -12.59316,10.794144 z"
     id="path10"
     sodipodi:nodetypes="ccccccccc" />
  <ellipse
     style="fill:#f1c41b;fill-opacity:1;fill-rule:nonzero;stroke-width:1.02526"
     id="path7"
     cx="246.9781"
     cy="104.51947"
     rx="7.7781744"
     ry="25.845999"
     transform="matrix(1,0,0.05319972,0.99858389,0,0)" />
  <ellipse
     style="fill:#f1c41b;fill-opacity:1;fill-rule:nonzero;stroke-width:1.0087"
     id="path15"
     cx="306.8089"
     cy="104.21805"
     rx="7.3132238"
     ry="24.71266"
     transform="matrix(0.99943653,-0.03356534,-0.05707717,0.99836977,0,0)" />
</svg>
